<svg width="138" height="41" viewBox="0 0 138 41" fill="none" xmlns="http://www.w3.org/2000/svg">
<path d="M60.4679 28.1115H61.7085V30.1497H62.8742V31.1518H61.7085V35.9166C61.7085 36.1711 61.7949 36.3415 61.9676 36.4279C62.063 36.4779 62.2221 36.5029 62.4447 36.5029C62.5038 36.5029 62.5675 36.5029 62.6356 36.5029C62.7038 36.4983 62.7833 36.4915 62.8742 36.4824V37.4504C62.7333 37.4913 62.5856 37.5208 62.4311 37.539C62.2811 37.5572 62.1175 37.5663 61.9403 37.5663C61.3677 37.5663 60.9792 37.4208 60.7747 37.13C60.5702 36.8346 60.4679 36.4529 60.4679 35.9848V31.1518H59.4795V30.1497H60.4679V28.1115Z" fill="#808080"/>
<path d="M67.3294 29.9861C67.8475 29.9861 68.3496 30.1088 68.8359 30.3542C69.3221 30.5951 69.6925 30.9086 69.947 31.2949C70.1924 31.663 70.356 32.0925 70.4378 32.5833C70.5105 32.9196 70.5469 33.4558 70.5469 34.192H65.1958C65.2185 34.9327 65.3935 35.5281 65.7207 35.978C66.0479 36.4233 66.5546 36.646 67.2408 36.646C67.8816 36.646 68.3928 36.4347 68.7745 36.0121C68.9927 35.7667 69.1472 35.4826 69.2381 35.16H70.4446C70.4128 35.4281 70.306 35.728 70.1242 36.0598C69.947 36.387 69.7471 36.6551 69.5244 36.8641C69.1517 37.2277 68.6905 37.4731 68.1406 37.6003C67.8452 37.6731 67.5112 37.7094 67.1385 37.7094C66.2296 37.7094 65.4594 37.3799 64.8277 36.721C64.196 36.0575 63.8802 35.1304 63.8802 33.9398C63.8802 32.7673 64.1983 31.8153 64.8345 31.0836C65.4707 30.3519 66.3024 29.9861 67.3294 29.9861ZM69.2858 33.2172C69.2358 32.6855 69.1199 32.2606 68.9381 31.9425C68.6019 31.3517 68.0406 31.0563 67.2544 31.0563C66.6909 31.0563 66.2183 31.2608 65.8365 31.6698C65.4548 32.0743 65.2526 32.5901 65.2299 33.2172H69.2858Z" fill="#808080"/>
<path d="M75.2245 29.9384C76.047 29.9384 76.7151 30.1383 77.2286 30.5383C77.7467 30.9382 78.058 31.6267 78.1625 32.6037H76.9696C76.8968 32.1538 76.731 31.7812 76.4719 31.4858C76.2129 31.1858 75.7971 31.0359 75.2245 31.0359C74.4428 31.0359 73.8839 31.4176 73.5476 32.1811C73.3294 32.6764 73.2204 33.2877 73.2204 34.0148C73.2204 34.7464 73.3749 35.3622 73.6839 35.8621C73.9929 36.362 74.4792 36.6119 75.1427 36.6119C75.6517 36.6119 76.0538 36.4574 76.3492 36.1484C76.6492 35.8348 76.8559 35.4076 76.9696 34.8669H78.1625C78.0261 35.8348 77.6853 36.5438 77.14 36.9937C76.5946 37.439 75.8971 37.6617 75.0473 37.6617C74.0929 37.6617 73.3317 37.314 72.7637 36.6187C72.1956 35.9189 71.9116 35.0464 71.9116 34.0011C71.9116 32.7196 72.2229 31.7221 72.8455 31.0086C73.4681 30.2951 74.2611 29.9384 75.2245 29.9384Z" fill="#808080"/>
<path d="M79.7385 27.4026H80.9655V31.1381C81.2563 30.77 81.5176 30.511 81.7494 30.361C82.1448 30.102 82.6379 29.9725 83.2286 29.9725C84.2875 29.9725 85.0055 30.3428 85.3827 31.0836C85.5872 31.4881 85.6895 32.0493 85.6895 32.7673V37.4504H84.4284V32.8491C84.4284 32.3129 84.3602 31.9198 84.2239 31.6698C84.0012 31.2699 83.5831 31.07 82.9696 31.07C82.4606 31.07 81.9994 31.2449 81.5858 31.5948C81.1723 31.9448 80.9655 32.606 80.9655 33.5785V37.4504H79.7385V27.4026Z" fill="#808080"/>
<path d="M87.3549 30.1497H88.5206V31.1858C88.8659 30.7587 89.2318 30.4519 89.618 30.2656C90.0043 30.0793 90.4338 29.9861 90.9064 29.9861C91.9425 29.9861 92.6424 30.3474 93.0059 31.07C93.2059 31.4653 93.3059 32.0311 93.3059 32.7673V37.4504H92.0584V32.8491C92.0584 32.4038 91.9925 32.0447 91.8607 31.7721C91.6426 31.3176 91.2472 31.0904 90.6746 31.0904C90.3838 31.0904 90.1452 31.12 89.9589 31.179C89.6226 31.279 89.3272 31.479 89.0727 31.7789C88.8682 32.0198 88.7341 32.2697 88.6705 32.5287C88.6114 32.7832 88.5819 33.149 88.5819 33.6262V37.4504H87.3549V30.1497Z" fill="#808080"/>
<path d="M97.8684 36.6596C98.6819 36.6596 99.2386 36.3529 99.5385 35.7394C99.843 35.1213 99.9952 34.4351 99.9952 33.6807C99.9952 32.9991 99.8861 32.4447 99.668 32.0175C99.3226 31.3449 98.7273 31.0086 97.882 31.0086C97.1322 31.0086 96.5869 31.2949 96.246 31.8675C95.9052 32.4401 95.7348 33.1309 95.7348 33.9398C95.7348 34.7169 95.9052 35.3645 96.246 35.8825C96.5869 36.4006 97.1277 36.6596 97.8684 36.6596ZM97.9161 29.9384C98.8568 29.9384 99.6521 30.252 100.302 30.8791C100.952 31.5062 101.277 32.4288 101.277 33.6467C101.277 34.8237 100.99 35.7962 100.418 36.5642C99.8452 37.3322 98.9568 37.7162 97.7525 37.7162C96.7482 37.7162 95.9506 37.3777 95.3599 36.7005C94.7691 36.0189 94.4737 35.1054 94.4737 33.9602C94.4737 32.7332 94.785 31.7562 95.4076 31.0291C96.0302 30.3019 96.8664 29.9384 97.9161 29.9384Z" fill="#808080"/>
<path d="M102.79 27.4367H104.017V37.4504H102.79V27.4367Z" fill="#808080"/>
<path d="M108.606 36.6596C109.42 36.6596 109.977 36.3529 110.277 35.7394C110.581 35.1213 110.733 34.4351 110.733 33.6807C110.733 32.9991 110.624 32.4447 110.406 32.0175C110.061 31.3449 109.465 31.0086 108.62 31.0086C107.87 31.0086 107.325 31.2949 106.984 31.8675C106.643 32.4401 106.473 33.1309 106.473 33.9398C106.473 34.7169 106.643 35.3645 106.984 35.8825C107.325 36.4006 107.866 36.6596 108.606 36.6596ZM108.654 29.9384C109.595 29.9384 110.39 30.252 111.04 30.8791C111.69 31.5062 112.015 32.4288 112.015 33.6467C112.015 34.8237 111.729 35.7962 111.156 36.5642C110.583 37.3322 109.695 37.7162 108.491 37.7162C107.486 37.7162 106.689 37.3777 106.098 36.7005C105.507 36.0189 105.212 35.1054 105.212 33.9602C105.212 32.7332 105.523 31.7562 106.146 31.0291C106.768 30.3019 107.604 29.9384 108.654 29.9384Z" fill="#808080"/>
<path d="M116.406 30.0202C116.979 30.0202 117.479 30.1611 117.906 30.4428C118.138 30.6019 118.374 30.8336 118.615 31.1381V30.2179H119.746V36.8573C119.746 37.7844 119.61 38.516 119.337 39.0523C118.828 40.043 117.867 40.5383 116.454 40.5383C115.668 40.5383 115.006 40.3611 114.47 40.0066C113.934 39.6567 113.634 39.1068 113.57 38.357H114.818C114.877 38.6842 114.995 38.9364 115.172 39.1136C115.45 39.3863 115.886 39.5226 116.481 39.5226C117.422 39.5226 118.038 39.1909 118.328 38.5274C118.501 38.1366 118.581 37.439 118.567 36.4347C118.322 36.8073 118.026 37.0845 117.681 37.2663C117.335 37.4481 116.879 37.539 116.311 37.539C115.52 37.539 114.827 37.2595 114.232 36.7005C113.641 36.137 113.345 35.2077 113.345 33.9125C113.345 32.6901 113.643 31.7357 114.238 31.0495C114.838 30.3633 115.561 30.0202 116.406 30.0202ZM118.615 33.7694C118.615 32.865 118.428 32.1947 118.056 31.7584C117.683 31.3222 117.208 31.104 116.631 31.104C115.768 31.104 115.177 31.5085 114.859 32.3174C114.691 32.7491 114.607 33.3149 114.607 34.0148C114.607 34.8373 114.772 35.4644 115.104 35.8962C115.44 36.3233 115.89 36.5369 116.454 36.5369C117.335 36.5369 117.956 36.1393 118.315 35.344C118.515 34.8941 118.615 34.3692 118.615 33.7694Z" fill="#808080"/>
<path d="M121.11 30.1838H122.358V37.4504H121.11V30.1838ZM121.11 27.4367H122.358V28.8273H121.11V27.4367Z" fill="#808080"/>
<path d="M126.936 29.9861C127.454 29.9861 127.956 30.1088 128.443 30.3542C128.929 30.5951 129.299 30.9086 129.554 31.2949C129.799 31.663 129.963 32.0925 130.045 32.5833C130.117 32.9196 130.154 33.4558 130.154 34.192H124.803C124.825 34.9327 125 35.5281 125.328 35.978C125.655 36.4233 126.161 36.646 126.848 36.646C127.488 36.646 128 36.4347 128.381 36.0121C128.6 35.7667 128.754 35.4826 128.845 35.16H130.051C130.02 35.4281 129.913 35.728 129.731 36.0598C129.554 36.387 129.354 36.6551 129.131 36.8641C128.759 37.2277 128.297 37.4731 127.747 37.6003C127.452 37.6731 127.118 37.7094 126.745 37.7094C125.837 37.7094 125.066 37.3799 124.435 36.721C123.803 36.0575 123.487 35.1304 123.487 33.9398C123.487 32.7673 123.805 31.8153 124.441 31.0836C125.078 30.3519 125.909 29.9861 126.936 29.9861ZM128.893 33.2172C128.843 32.6855 128.727 32.2606 128.545 31.9425C128.209 31.3517 127.647 31.0563 126.861 31.0563C126.298 31.0563 125.825 31.2608 125.443 31.6698C125.062 32.0743 124.859 32.5901 124.837 33.2172H128.893Z" fill="#808080"/>
<path d="M132.745 35.16C132.782 35.569 132.884 35.8825 133.052 36.1007C133.361 36.496 133.897 36.6937 134.661 36.6937C135.115 36.6937 135.515 36.596 135.861 36.4006C136.206 36.2006 136.379 35.8939 136.379 35.4804C136.379 35.1668 136.24 34.9282 135.963 34.7646C135.786 34.6646 135.436 34.5487 134.913 34.417L133.938 34.1716C133.316 34.017 132.857 33.8444 132.561 33.6535C132.034 33.3217 131.771 32.8627 131.771 32.2765C131.771 31.5858 132.018 31.0268 132.514 30.5996C133.014 30.1724 133.684 29.9588 134.525 29.9588C135.624 29.9588 136.417 30.2815 136.904 30.9268C137.208 31.3358 137.356 31.7766 137.347 32.2492H136.188C136.165 31.972 136.067 31.7198 135.895 31.4926C135.613 31.1699 135.124 31.0086 134.429 31.0086C133.966 31.0086 133.613 31.0972 133.373 31.2745C133.136 31.4517 133.018 31.6857 133.018 31.9766C133.018 32.2947 133.175 32.5492 133.488 32.74C133.67 32.8537 133.938 32.9536 134.293 33.04L135.104 33.2377C135.986 33.4513 136.576 33.658 136.876 33.858C137.354 34.1716 137.592 34.6646 137.592 35.3372C137.592 35.9871 137.344 36.5483 136.849 37.0209C136.358 37.4935 135.608 37.7299 134.6 37.7299C133.513 37.7299 132.743 37.4845 132.289 36.9937C131.839 36.4983 131.598 35.8871 131.566 35.16H132.745Z" fill="#808080"/>
<path d="M13.9402 14.2753C13.9422 14.286 13.934 14.296 13.9231 14.296H5.7577C5.74762 14.296 5.73964 14.2875 5.74035 14.2775C5.76523 13.9268 5.83585 13.5304 5.95219 13.0883C6.09427 12.6384 6.31922 12.2122 6.62706 11.8096C6.95857 11.4071 7.38481 11.0756 7.90576 10.8151C8.45039 10.5309 9.12526 10.3889 9.93037 10.3889C11.1617 10.3889 12.0734 10.7204 12.6654 11.3834C13.2777 12.0429 13.7027 13.0068 13.9402 14.2753ZM5.73988 17.5111C5.73944 17.5012 5.74735 17.4928 5.75727 17.4928H18.9226C18.9593 17.4928 18.9897 17.4642 18.992 17.4276C19.0789 16.0303 18.9591 14.6905 18.6326 13.408C18.3011 12.1056 17.7565 10.9453 16.9987 9.92711C16.2647 8.90889 15.3175 8.10378 14.1572 7.51179C12.9969 6.89612 11.6353 6.58828 10.0724 6.58828C8.67535 6.58828 7.39665 6.83692 6.23635 7.33419C5.09972 7.83146 4.11702 8.51817 3.28823 9.39432C2.45944 10.2468 1.82009 11.265 1.37018 12.449C0.920269 13.633 0.695312 14.9117 0.695312 16.2851C0.695312 17.7059 0.908429 19.0082 1.33466 20.1922C1.78458 21.3762 2.41209 22.3944 3.21719 23.2469C4.0223 24.0994 5.005 24.7624 6.16531 25.236C7.32561 25.6859 8.62799 25.9109 10.0724 25.9109C12.1563 25.9109 13.9322 25.4373 15.4004 24.4901C16.8481 23.556 17.9275 22.0118 18.6384 19.8573C18.6532 19.8124 18.6197 19.766 18.5724 19.766H14.2805C14.2495 19.766 14.2224 19.7865 14.2129 19.816C14.0358 20.3663 13.591 20.8942 12.8785 21.3999C12.1444 21.8972 11.2683 22.1458 10.25 22.1458C8.82926 22.1458 7.74 21.7788 6.98225 21.0447C6.22734 20.3134 5.81322 19.1355 5.73988 17.5111Z" fill="black"/>
<path d="M25.6022 15.7878L19.0702 25.34C19.0385 25.3863 19.0717 25.4491 19.1277 25.4491H24.6058C24.6291 25.4491 24.651 25.4374 24.6639 25.4179L28.4648 19.6814C28.4716 19.671 28.4869 19.671 28.4938 19.6814L32.2947 25.4179C32.3076 25.4374 32.3294 25.4491 32.3528 25.4491H37.9363C37.9925 25.4491 38.0256 25.3859 37.9935 25.3396L31.2853 15.6813L37.2465 7.19533C37.279 7.14914 37.2459 7.08556 37.1895 7.08556H31.7844C31.7611 7.08556 31.7393 7.0972 31.7264 7.1166L28.5647 11.859C28.5579 11.8694 28.5427 11.8694 28.5358 11.8591L25.3388 7.1163C25.3258 7.09708 25.3042 7.08556 25.281 7.08556H19.6971C19.6409 7.08556 19.6078 7.14878 19.6398 7.195L25.6022 15.7878Z" fill="black"/>
<path d="M48.1965 22.1458C47.3914 22.1458 46.7046 21.98 46.1363 21.6485C45.568 21.317 45.1063 20.8908 44.7511 20.3698C44.4196 19.8252 44.1709 19.1977 44.0052 18.4873C43.8631 17.7769 43.7921 17.0547 43.7921 16.3206C43.7921 15.5629 43.8631 14.8288 44.0052 14.1184C44.1472 13.408 44.384 12.7805 44.7156 12.2359C45.0708 11.6912 45.5207 11.2532 46.0653 10.9217C46.6336 10.5665 47.3322 10.3889 48.1609 10.3889C48.9661 10.3889 49.6409 10.5665 50.1856 10.9217C50.7539 11.2532 51.2156 11.7031 51.5708 12.2714C51.926 12.816 52.1746 13.4435 52.3167 14.1539C52.4825 14.8643 52.5654 15.5865 52.5654 16.3206C52.5654 17.0547 52.4943 17.7769 52.3522 18.4873C52.2102 19.1977 51.9615 19.8252 51.6063 20.3698C51.2748 20.8908 50.8249 21.317 50.2566 21.6485C49.712 21.98 49.0253 22.1458 48.1965 22.1458ZM38.9956 7.08556C38.9571 7.08556 38.9259 7.11676 38.9259 7.15526V31.8084C38.9259 31.8469 38.9571 31.8781 38.9956 31.8781H43.8999C43.9384 31.8781 43.9697 31.8469 43.9697 31.8084V23.2224C43.9697 23.1967 43.9905 23.1759 44.0162 23.1759C44.0315 23.1759 44.0459 23.1835 44.0546 23.1961C44.6681 24.086 45.4449 24.766 46.385 25.236C47.3558 25.6859 48.4096 25.9109 49.5462 25.9109C50.8959 25.9109 52.0681 25.6504 53.0626 25.1294C54.0809 24.6085 54.9215 23.9099 55.5845 23.0338C56.2712 22.1576 56.7803 21.1513 57.1118 20.0146C57.4434 18.878 57.6091 17.694 57.6091 16.4627C57.6091 15.1603 57.4434 13.9171 57.1118 12.7331C56.7803 11.5255 56.2712 10.4717 55.5845 9.57192C54.8978 8.67209 54.0335 7.94986 52.9916 7.40523C51.9497 6.8606 50.7065 6.58828 49.262 6.58828C48.1254 6.58828 47.0835 6.81324 46.1363 7.26315C45.196 7.70979 44.4191 8.42481 43.8055 9.40819C43.7971 9.42159 43.7824 9.42984 43.7666 9.42984C43.7414 9.42984 43.721 9.40941 43.721 9.38421V7.15526C43.721 7.11676 43.6898 7.08556 43.6513 7.08556H38.9956Z" fill="black"/>
<path d="M71.8913 14.2753C71.8933 14.286 71.8851 14.296 71.8742 14.296H63.7088C63.6987 14.296 63.6907 14.2875 63.6914 14.2775C63.7163 13.9268 63.7869 13.5304 63.9033 13.0883C64.0454 12.6384 64.2703 12.2122 64.5782 11.8096C64.9097 11.4071 65.3359 11.0756 65.8569 10.8151C66.4015 10.5309 67.0764 10.3889 67.8815 10.3889C69.1128 10.3889 70.0245 10.7204 70.6165 11.3834C71.2288 12.0429 71.6538 13.0068 71.8913 14.2753ZM63.691 17.5111C63.6905 17.5012 63.6985 17.4928 63.7084 17.4928H76.8737C76.9104 17.4928 76.9408 17.4642 76.9431 17.4276C77.03 16.0303 76.9102 14.6905 76.5837 13.408C76.2522 12.1056 75.7076 10.9453 74.9498 9.92711C74.2158 8.90889 73.2686 8.10378 72.1083 7.51179C70.948 6.89612 69.5864 6.58828 68.0235 6.58828C66.6264 6.58828 65.3477 6.83692 64.1874 7.33419C63.0508 7.83146 62.0681 8.51817 61.2393 9.39432C60.4105 10.2468 59.7712 11.265 59.3213 12.449C58.8714 13.633 58.6464 14.9117 58.6464 16.2851C58.6464 17.7059 58.8595 19.0082 59.2858 20.1922C59.7357 21.3762 60.3632 22.3944 61.1683 23.2469C61.9734 24.0994 62.9561 24.7624 64.1164 25.236C65.2767 25.6859 66.5791 25.9109 68.0235 25.9109C70.1074 25.9109 71.8833 25.4373 73.3515 24.4901C74.7992 23.556 75.8786 22.0118 76.5895 19.8573C76.6043 19.8124 76.5708 19.766 76.5235 19.766H72.2316C72.2006 19.766 72.1735 19.7865 72.164 19.816C71.9869 20.3663 71.5421 20.8942 70.8296 21.3999C70.0955 21.8972 69.2194 22.1458 68.2011 22.1458C66.7804 22.1458 65.6911 21.7788 64.9334 21.0447C64.1785 20.3134 63.7643 19.1355 63.691 17.5111Z" fill="black"/>
<path d="M78.9345 7.08556C78.896 7.08556 78.8648 7.11676 78.8648 7.15526V25.3794C78.8648 25.4179 78.896 25.4491 78.9345 25.4491H83.8388C83.8773 25.4491 83.9085 25.4179 83.9085 25.3794V17.1731C83.9085 16.3443 83.9914 15.5747 84.1572 14.8643C84.3229 14.1539 84.5952 13.5383 84.9741 13.0173C85.3766 12.4727 85.8976 12.0464 86.537 11.7386C87.1763 11.4308 87.9577 11.2768 88.8812 11.2768C89.1891 11.2768 89.5088 11.3005 89.8403 11.3479C90.1337 11.3688 90.39 11.3991 90.6092 11.4386C90.6525 11.4464 90.6927 11.4134 90.6927 11.3694V6.81804C90.6927 6.78711 90.6723 6.75983 90.6426 6.75139C90.2596 6.64265 89.9093 6.58828 89.5916 6.58828C88.9523 6.58828 88.3366 6.683 87.7446 6.87244C87.1526 7.06187 86.5961 7.33419 86.0752 7.68939C85.5542 8.0209 85.0925 8.43529 84.6899 8.93257C84.2936 9.39887 83.9776 9.91108 83.7419 10.4692C83.7352 10.4851 83.7197 10.4954 83.7025 10.4954C83.679 10.4954 83.6599 10.4763 83.6599 10.4528V7.15526C83.6599 7.11676 83.6287 7.08556 83.5902 7.08556H78.9345Z" fill="black"/>
<path d="M104.172 16.2851C104.172 15.551 104.243 14.8288 104.385 14.1184C104.527 13.408 104.764 12.7805 105.095 12.2359C105.45 11.6912 105.912 11.2532 106.481 10.9217C107.049 10.5665 107.759 10.3889 108.612 10.3889C109.464 10.3889 110.175 10.5665 110.743 10.9217C111.335 11.2532 111.797 11.6912 112.128 12.2359C112.483 12.7805 112.732 13.408 112.874 14.1184C113.016 14.8288 113.087 15.551 113.087 16.2851C113.087 17.0192 113.016 17.7414 112.874 18.4518C112.732 19.1385 112.483 19.766 112.128 20.3343C111.797 20.8789 111.335 21.317 110.743 21.6485C110.175 21.98 109.464 22.1458 108.612 22.1458C107.759 22.1458 107.049 21.98 106.481 21.6485C105.912 21.317 105.45 20.8789 105.095 20.3343C104.764 19.766 104.527 19.1385 104.385 18.4518C104.243 17.7414 104.172 17.0192 104.172 16.2851ZM99.128 16.2851C99.128 17.7532 99.353 19.0793 99.8029 20.2633C100.253 21.4472 100.892 22.4655 101.721 23.3179C102.55 24.1467 103.544 24.7861 104.705 25.236C105.865 25.6859 107.167 25.9109 108.612 25.9109C110.056 25.9109 111.359 25.6859 112.519 25.236C113.703 24.7861 114.709 24.1467 115.538 23.3179C116.367 22.4655 117.006 21.4472 117.456 20.2633C117.906 19.0793 118.131 17.7532 118.131 16.2851C118.131 14.817 117.906 13.4909 117.456 12.3069C117.006 11.0993 116.367 10.081 115.538 9.25224C114.709 8.39977 113.703 7.74858 112.519 7.29867C111.359 6.82508 110.056 6.58828 108.612 6.58828C107.167 6.58828 105.865 6.82508 104.705 7.29867C103.544 7.74858 102.55 8.39977 101.721 9.25224C100.892 10.081 100.253 11.0993 99.8029 12.3069C99.353 13.4909 99.128 14.817 99.128 16.2851Z" fill="black"/>
<path d="M120.415 7.08556C120.376 7.08556 120.345 7.11676 120.345 7.15526V25.3794C120.345 25.4179 120.376 25.4491 120.415 25.4491H125.319C125.357 25.4491 125.389 25.4179 125.389 25.3794V15.8233C125.389 13.9526 125.696 12.6147 126.312 11.8096C126.928 10.9809 127.922 10.5665 129.296 10.5665C130.503 10.5665 131.344 10.9453 131.818 11.7031C132.291 12.4372 132.528 13.5619 132.528 15.0774V25.3794C132.528 25.4179 132.559 25.4491 132.598 25.4491H137.502C137.541 25.4491 137.572 25.4179 137.572 25.3794V14.1539C137.572 13.0173 137.465 11.9872 137.252 11.0637C137.063 10.1165 136.719 9.32328 136.222 8.68393C135.725 8.0209 135.038 7.51179 134.162 7.15659C133.309 6.77772 132.208 6.58828 130.859 6.58828C129.793 6.58828 128.751 6.83692 127.733 7.33419C126.725 7.80287 125.903 8.56144 125.266 9.60989C125.254 9.63032 125.232 9.64296 125.208 9.64296C125.17 9.64296 125.14 9.6125 125.14 9.57492V7.15526C125.14 7.11676 125.109 7.08556 125.07 7.08556H120.415Z" fill="black"/>
<path d="M92.2539 0.551956C92.2539 0.536206 92.2667 0.523438 92.2824 0.523438H97.2692C97.2849 0.523438 97.2977 0.536206 97.2977 0.551956V3.67952L92.2539 5.5669V0.551956Z" fill="#DC143C"/>
<path d="M97.2974 7.00439H92.2539V25.3848C92.2539 25.4235 92.2851 25.4546 92.3236 25.4546H97.228C97.2664 25.4546 97.2977 25.4235 97.2977 25.3848V7.12207C97.2977 7.12018 97.2976 7.11798 97.2974 7.11609V7.00439Z" fill="black"/>
</svg>
